<mxfile host="app.diagrams.net" agent="Mozilla/5.0 (Windows NT 10.0; Win64; x64) AppleWebKit/537.36 (KHTML, like Gecko) Chrome/131.0.0.0 Safari/537.36" version="25.0.3">
  <diagram name="Page-1" id="gYPdV5KYoYjTxZCbX4Au">
    <mxGraphModel dx="3088" dy="1907" grid="1" gridSize="10" guides="1" tooltips="1" connect="1" arrows="1" fold="1" page="1" pageScale="1" pageWidth="1654" pageHeight="1169" math="0" shadow="0">
      <root>
        <mxCell id="0" />
        <mxCell id="1" parent="0" />
        <mxCell id="oLKlljd090616Nfrw5Nb-1" value="``````````````````````````````````````````" style="swimlane;startSize=0;fontFamily=Lucida Console;fontSize=14;" parent="1" vertex="1">
          <mxGeometry x="20" y="10" width="1200" height="708" as="geometry" />
        </mxCell>
        <mxCell id="LSzqvkUK99cfRbp6Mw0R-2" value="&#xa;" style="swimlane;startSize=0;fontFamily=Lucida Console;fontSize=14;" vertex="1" parent="oLKlljd090616Nfrw5Nb-1">
          <mxGeometry width="300" height="338" as="geometry" />
        </mxCell>
        <mxCell id="LSzqvkUK99cfRbp6Mw0R-15" value="&lt;div&gt;&lt;span style=&quot;background-color: initial;&quot;&gt;&lt;font color=&quot;#3399ff&quot;&gt;Mode of Operation&lt;/font&gt;&lt;/span&gt;&lt;/div&gt;&lt;div&gt;&lt;font color=&quot;#3399ff&quot;&gt;&lt;div&gt;✔&amp;nbsp;Power Off&lt;/div&gt;&lt;div&gt;&amp;nbsp;✖ Normal&amp;nbsp;&lt;/div&gt;&lt;div&gt;⚪ ⚫&amp;nbsp;Safety Inhibit&lt;/div&gt;&lt;/font&gt;&lt;/div&gt;" style="text;html=1;align=left;verticalAlign=middle;resizable=0;points=[];autosize=1;strokeColor=none;fillColor=default;fontFamily=Lucida Console;fontSize=14;" vertex="1" parent="LSzqvkUK99cfRbp6Mw0R-2">
          <mxGeometry x="20" y="30" width="200" height="80" as="geometry" />
        </mxCell>
        <mxCell id="LSzqvkUK99cfRbp6Mw0R-17" value="&lt;div&gt;&lt;span style=&quot;color: rgb(51, 153, 255); background-color: initial;&quot;&gt;Normal modes of operation&lt;/span&gt;&lt;/div&gt;&lt;div&gt;&lt;span style=&quot;background-color: initial;&quot;&gt;&lt;font color=&quot;#3399ff&quot;&gt;&lt;div style=&quot;&quot;&gt;Power Up&lt;/div&gt;&lt;div style=&quot;&quot;&gt;Standby&lt;/div&gt;&lt;div style=&quot;&quot;&gt;Rate&amp;nbsp;&lt;/div&gt;&lt;div style=&quot;&quot;&gt;Position&lt;/div&gt;&lt;div style=&quot;&quot;&gt;Torque&amp;nbsp;&lt;/div&gt;&lt;div style=&quot;&quot;&gt;Park&lt;/div&gt;&lt;div style=&quot;&quot;&gt;Inhibit&lt;/div&gt;&lt;div style=&quot;&quot;&gt;Fault&amp;nbsp;&lt;/div&gt;&lt;/font&gt;&lt;/span&gt;&lt;/div&gt;" style="text;html=1;align=left;verticalAlign=middle;resizable=0;points=[];autosize=1;strokeColor=none;fillColor=default;fontFamily=Lucida Console;fontSize=14;" vertex="1" parent="LSzqvkUK99cfRbp6Mw0R-2">
          <mxGeometry x="20" y="120" width="230" height="160" as="geometry" />
        </mxCell>
        <mxCell id="LSzqvkUK99cfRbp6Mw0R-18" value="&lt;div&gt;&lt;font color=&quot;#3399ff&quot;&gt;[1] RCU&lt;/font&gt;&lt;/div&gt;" style="text;html=1;align=left;verticalAlign=middle;resizable=0;points=[];autosize=1;strokeColor=none;fillColor=default;fontFamily=Lucida Console;fontSize=14;" vertex="1" parent="LSzqvkUK99cfRbp6Mw0R-2">
          <mxGeometry x="70" width="80" height="30" as="geometry" />
        </mxCell>
        <mxCell id="oLKlljd090616Nfrw5Nb-26" value="&lt;div&gt;&lt;font color=&quot;#3399ff&quot;&gt;Movement&lt;/font&gt;&lt;/div&gt;&lt;div&gt;&lt;font color=&quot;#3399ff&quot;&gt;&amp;gt;&amp;gt; (forward) / &amp;lt;&amp;lt; reverse&lt;/font&gt;&lt;/div&gt;&lt;div&gt;&lt;font color=&quot;#3399ff&quot;&gt;| stopped&lt;/font&gt;&lt;/div&gt;&lt;div&gt;&lt;font color=&quot;#3399ff&quot;&gt;!!! error&lt;/font&gt;&lt;/div&gt;&lt;div&gt;&lt;font color=&quot;#3399ff&quot;&gt;... progress indicator&lt;/font&gt;&lt;/div&gt;" style="text;html=1;align=left;verticalAlign=middle;resizable=0;points=[];autosize=1;strokeColor=none;fillColor=default;fontFamily=Lucida Console;fontSize=14;" parent="oLKlljd090616Nfrw5Nb-1" vertex="1">
          <mxGeometry x="10" y="590" width="230" height="100" as="geometry" />
        </mxCell>
        <mxCell id="oLKlljd090616Nfrw5Nb-27" value="&lt;div&gt;&lt;font color=&quot;#3399ff&quot;&gt;Power&lt;/font&gt;&lt;/div&gt;&lt;div&gt;&lt;font color=&quot;#3399ff&quot;&gt;300 V [ON] / [OFF]&lt;/font&gt;&lt;/div&gt;&lt;div&gt;&lt;span style=&quot;color: rgb(51, 153, 255);&quot;&gt;24 V [ON] / [OFF]&lt;/span&gt;&lt;font color=&quot;#3399ff&quot;&gt;&lt;/font&gt;&lt;/div&gt;&lt;div&gt;&lt;span style=&quot;color: rgb(51, 153, 255);&quot;&gt;5 V [ON] / [OFF]&lt;/span&gt;&lt;span style=&quot;color: rgb(51, 153, 255);&quot;&gt;&lt;/span&gt;&lt;/div&gt;" style="text;html=1;align=left;verticalAlign=middle;resizable=0;points=[];autosize=1;strokeColor=none;fillColor=default;fontFamily=Lucida Console;fontSize=14;" parent="oLKlljd090616Nfrw5Nb-1" vertex="1">
          <mxGeometry x="280" y="610" width="180" height="80" as="geometry" />
        </mxCell>
        <mxCell id="oLKlljd090616Nfrw5Nb-19" value="&lt;font color=&quot;#3399ff&quot;&gt;Comms&amp;nbsp;&amp;nbsp;&lt;/font&gt;&lt;div&gt;&lt;font color=&quot;#3399ff&quot;&gt;&amp;nbsp; &amp;nbsp; &amp;nbsp; &amp;nbsp; &amp;nbsp; &amp;nbsp;Int CAN&amp;nbsp;&lt;/font&gt;&lt;/div&gt;&lt;div&gt;&lt;font color=&quot;#3399ff&quot;&gt;Connected&amp;nbsp; [c] / [d]&amp;nbsp;&lt;/font&gt;&lt;/div&gt;&lt;div&gt;&lt;font color=&quot;#3399ff&quot;&gt;Recv&amp;nbsp; &amp;nbsp; &amp;nbsp; &amp;nbsp;&amp;lt;--&amp;nbsp;&lt;/font&gt;&lt;/div&gt;&lt;div&gt;&lt;font color=&quot;#3399ff&quot;&gt;Send&amp;nbsp; &amp;nbsp; &amp;nbsp; &amp;nbsp;--&amp;gt;&lt;/font&gt;&lt;/div&gt;&lt;div&gt;&lt;font color=&quot;#3399ff&quot;&gt;Idle&amp;nbsp; &amp;nbsp; &amp;nbsp; &amp;nbsp;&lt;/font&gt;&lt;span style=&quot;color: rgb(51, 153, 255); background-color: initial;&quot;&gt;...&lt;/span&gt;&lt;/div&gt;&lt;div&gt;&lt;font color=&quot;#3399ff&quot;&gt;&lt;br&gt;&lt;/font&gt;&lt;/div&gt;&lt;div&gt;&lt;font color=&quot;#3399ff&quot;&gt;&amp;nbsp; &amp;nbsp; &amp;nbsp; &amp;nbsp; &amp;nbsp; &amp;nbsp;CANopen&amp;nbsp;&lt;/font&gt;&lt;/div&gt;&lt;div&gt;&lt;div&gt;&lt;font color=&quot;#3399ff&quot;&gt;Connected&amp;nbsp; [c] / [d]&amp;nbsp;&lt;/font&gt;&lt;/div&gt;&lt;div&gt;&lt;font color=&quot;#3399ff&quot;&gt;Recv&amp;nbsp; &amp;nbsp; &amp;nbsp; &amp;nbsp;&amp;lt;--&amp;nbsp;&lt;/font&gt;&lt;/div&gt;&lt;div&gt;&lt;font color=&quot;#3399ff&quot;&gt;Send&amp;nbsp; &amp;nbsp; &amp;nbsp; &amp;nbsp;--&amp;gt;&lt;/font&gt;&lt;/div&gt;&lt;div&gt;&lt;font color=&quot;#3399ff&quot;&gt;Idle&amp;nbsp; &amp;nbsp; &amp;nbsp; &amp;nbsp;&lt;/font&gt;&lt;span style=&quot;color: rgb(51, 153, 255); background-color: initial;&quot;&gt;...&lt;/span&gt;&lt;/div&gt;&lt;/div&gt;&lt;div&gt;&lt;span style=&quot;color: rgb(51, 153, 255); background-color: initial;&quot;&gt;&lt;br&gt;&lt;/span&gt;&lt;/div&gt;&lt;div&gt;&lt;div&gt;&lt;font color=&quot;#3399ff&quot;&gt;&amp;nbsp; &amp;nbsp; &amp;nbsp; &amp;nbsp; &amp;nbsp; &amp;nbsp;TCP&amp;nbsp;&lt;/font&gt;&lt;/div&gt;&lt;div&gt;&lt;div&gt;&lt;font color=&quot;#3399ff&quot;&gt;Connected&amp;nbsp; [c] / [d]&amp;nbsp;&lt;/font&gt;&lt;/div&gt;&lt;div&gt;&lt;font color=&quot;#3399ff&quot;&gt;Recv&amp;nbsp; &amp;nbsp; &amp;nbsp; &amp;nbsp;&amp;lt;--&amp;nbsp;&lt;/font&gt;&lt;/div&gt;&lt;div&gt;&lt;font color=&quot;#3399ff&quot;&gt;Send&amp;nbsp; &amp;nbsp; &amp;nbsp; &amp;nbsp;--&amp;gt;&lt;/font&gt;&lt;/div&gt;&lt;div&gt;&lt;font color=&quot;#3399ff&quot;&gt;Idle&amp;nbsp; &amp;nbsp; &amp;nbsp; &amp;nbsp;&lt;/font&gt;&lt;span style=&quot;color: rgb(51, 153, 255); background-color: initial;&quot;&gt;...&lt;/span&gt;&lt;/div&gt;&lt;/div&gt;&lt;/div&gt;&lt;div&gt;&lt;span style=&quot;color: rgb(51, 153, 255); background-color: initial;&quot;&gt;&lt;br&gt;&lt;/span&gt;&lt;/div&gt;&lt;div&gt;&lt;div&gt;&lt;div&gt;&lt;font color=&quot;#3399ff&quot;&gt;&amp;nbsp; &amp;nbsp; &amp;nbsp; &amp;nbsp; &amp;nbsp; &amp;nbsp;UDP&lt;/font&gt;&lt;/div&gt;&lt;div&gt;&lt;div&gt;&lt;font color=&quot;#3399ff&quot;&gt;Connected&amp;nbsp; [c] / [d]&amp;nbsp;&lt;/font&gt;&lt;/div&gt;&lt;div&gt;&lt;font color=&quot;#3399ff&quot;&gt;Recv&amp;nbsp; &amp;nbsp; &amp;nbsp; &amp;nbsp;&amp;lt;--&amp;nbsp;&lt;/font&gt;&lt;/div&gt;&lt;div&gt;&lt;font color=&quot;#3399ff&quot;&gt;Send&amp;nbsp; &amp;nbsp; &amp;nbsp; &amp;nbsp;--&amp;gt;&lt;/font&gt;&lt;/div&gt;&lt;div&gt;&lt;font color=&quot;#3399ff&quot;&gt;Idle&amp;nbsp; &amp;nbsp; &amp;nbsp; &amp;nbsp;&lt;/font&gt;&lt;span style=&quot;color: rgb(51, 153, 255); background-color: initial;&quot;&gt;...&lt;/span&gt;&lt;/div&gt;&lt;/div&gt;&lt;/div&gt;&lt;/div&gt;&lt;div&gt;&lt;span style=&quot;color: rgb(51, 153, 255); background-color: initial;&quot;&gt;&lt;br&gt;&lt;/span&gt;&lt;/div&gt;&lt;div&gt;&lt;span style=&quot;color: rgb(51, 153, 255); background-color: initial;&quot;&gt;&amp;nbsp; &amp;nbsp; &amp;nbsp; &amp;nbsp; &amp;nbsp; &amp;nbsp;UART&lt;/span&gt;&lt;/div&gt;&lt;div&gt;&lt;div&gt;&lt;div&gt;&lt;font color=&quot;#3399ff&quot;&gt;Connected&amp;nbsp; [c] / [d]&amp;nbsp;&lt;/font&gt;&lt;/div&gt;&lt;div&gt;&lt;font color=&quot;#3399ff&quot;&gt;Recv&amp;nbsp; &amp;nbsp; &amp;nbsp; &amp;nbsp;&amp;lt;--&amp;nbsp;&lt;/font&gt;&lt;/div&gt;&lt;div&gt;&lt;font color=&quot;#3399ff&quot;&gt;Send&amp;nbsp; &amp;nbsp; &amp;nbsp; &amp;nbsp;--&amp;gt;&lt;/font&gt;&lt;/div&gt;&lt;div&gt;&lt;font color=&quot;#3399ff&quot;&gt;Idle&amp;nbsp; &amp;nbsp; &amp;nbsp; &amp;nbsp;&lt;/font&gt;&lt;span style=&quot;color: rgb(51, 153, 255); background-color: initial;&quot;&gt;...&lt;/span&gt;&lt;/div&gt;&lt;/div&gt;&lt;/div&gt;&lt;div&gt;&lt;span style=&quot;color: rgb(51, 153, 255); background-color: initial;&quot;&gt;&lt;br&gt;&lt;/span&gt;&lt;/div&gt;" style="text;html=1;align=left;verticalAlign=middle;resizable=0;points=[];autosize=1;strokeColor=none;fillColor=default;fontFamily=Lucida Console;fontSize=14;" parent="oLKlljd090616Nfrw5Nb-1" vertex="1">
          <mxGeometry x="990" y="10" width="200" height="530" as="geometry" />
        </mxCell>
        <mxCell id="oLKlljd090616Nfrw5Nb-18" value="&lt;font color=&quot;#3399ff&quot;&gt;State [OK]&amp;nbsp;&lt;/font&gt;&lt;div&gt;&lt;font color=&quot;#3399ff&quot;&gt;[ERR]&amp;nbsp;&lt;/font&gt;&lt;/div&gt;&lt;div&gt;&lt;font color=&quot;#3399ff&quot;&gt;[WRN]&lt;/font&gt;&lt;/div&gt;&lt;div&gt;&lt;font color=&quot;#3399ff&quot;&gt;[OFF] disabled state&lt;/font&gt;&lt;/div&gt;&lt;div&gt;&lt;font color=&quot;#3399ff&quot;&gt;[ON] enabled state&lt;/font&gt;&lt;/div&gt;" style="text;html=1;align=left;verticalAlign=middle;resizable=0;points=[];autosize=1;strokeColor=none;fillColor=default;fontFamily=Lucida Console;fontSize=14;" parent="oLKlljd090616Nfrw5Nb-1" vertex="1">
          <mxGeometry x="50" y="440" width="190" height="100" as="geometry" />
        </mxCell>
        <mxCell id="LSzqvkUK99cfRbp6Mw0R-19" value="&lt;div&gt;&lt;font color=&quot;#f8cecc&quot;&gt;BLK&lt;/font&gt;&lt;/div&gt;&lt;div&gt;&lt;font color=&quot;#ea6b66&quot;&gt;RED&lt;/font&gt;&lt;/div&gt;&lt;div&gt;&lt;span style=&quot;color: rgb(0, 204, 0);&quot;&gt;GRN&lt;/span&gt;&lt;/div&gt;&lt;div&gt;&lt;font color=&quot;#495411&quot;&gt;YEL&lt;/font&gt;&lt;/div&gt;&lt;div&gt;&lt;font color=&quot;#3399ff&quot;&gt;BLU&lt;/font&gt;&lt;/div&gt;&lt;div&gt;&lt;font color=&quot;#ff33ff&quot;&gt;MAG&lt;/font&gt;&lt;/div&gt;&lt;div&gt;&lt;font color=&quot;#004c99&quot;&gt;CYN&lt;/font&gt;&lt;/div&gt;&lt;div&gt;WHT&lt;/div&gt;&lt;div&gt;&lt;br&gt;&lt;/div&gt;" style="text;html=1;align=left;verticalAlign=middle;resizable=0;points=[];autosize=1;strokeColor=none;fillColor=default;fontFamily=Lucida Console;fontSize=14;" vertex="1" parent="oLKlljd090616Nfrw5Nb-1">
          <mxGeometry x="490" y="540" width="50" height="160" as="geometry" />
        </mxCell>
        <mxCell id="LSzqvkUK99cfRbp6Mw0R-57" value="&#xa;" style="swimlane;startSize=0;fontFamily=Lucida Console;fontSize=14;" vertex="1" parent="oLKlljd090616Nfrw5Nb-1">
          <mxGeometry x="300" width="300" height="338" as="geometry" />
        </mxCell>
        <mxCell id="LSzqvkUK99cfRbp6Mw0R-58" value="&lt;div&gt;&lt;font color=&quot;#3399ff&quot;&gt;xxx&lt;/font&gt;&lt;/div&gt;" style="text;html=1;align=left;verticalAlign=middle;resizable=0;points=[];autosize=1;strokeColor=none;fillColor=default;fontFamily=Lucida Console;fontSize=14;" vertex="1" parent="LSzqvkUK99cfRbp6Mw0R-57">
          <mxGeometry x="20" y="55" width="50" height="30" as="geometry" />
        </mxCell>
        <mxCell id="LSzqvkUK99cfRbp6Mw0R-59" value="&lt;div&gt;&lt;font color=&quot;#3399ff&quot;&gt;xxx&lt;/font&gt;&lt;/div&gt;" style="text;html=1;align=left;verticalAlign=middle;resizable=0;points=[];autosize=1;strokeColor=none;fillColor=default;fontFamily=Lucida Console;fontSize=14;" vertex="1" parent="LSzqvkUK99cfRbp6Mw0R-57">
          <mxGeometry x="20" y="185" width="50" height="30" as="geometry" />
        </mxCell>
        <mxCell id="LSzqvkUK99cfRbp6Mw0R-60" value="&lt;div&gt;&lt;font color=&quot;#3399ff&quot;&gt;[2] SIU&lt;/font&gt;&lt;/div&gt;" style="text;html=1;align=left;verticalAlign=middle;resizable=0;points=[];autosize=1;strokeColor=none;fillColor=default;fontFamily=Lucida Console;fontSize=14;" vertex="1" parent="LSzqvkUK99cfRbp6Mw0R-57">
          <mxGeometry x="70" width="80" height="30" as="geometry" />
        </mxCell>
        <mxCell id="LSzqvkUK99cfRbp6Mw0R-61" value="&#xa;" style="swimlane;startSize=0;fontFamily=Lucida Console;fontSize=14;" vertex="1" parent="oLKlljd090616Nfrw5Nb-1">
          <mxGeometry x="600" width="300" height="338" as="geometry" />
        </mxCell>
        <mxCell id="LSzqvkUK99cfRbp6Mw0R-62" value="&lt;div&gt;&lt;font color=&quot;#3399ff&quot;&gt;xxx&lt;/font&gt;&lt;/div&gt;" style="text;html=1;align=left;verticalAlign=middle;resizable=0;points=[];autosize=1;strokeColor=none;fillColor=default;fontFamily=Lucida Console;fontSize=14;" vertex="1" parent="LSzqvkUK99cfRbp6Mw0R-61">
          <mxGeometry x="20" y="55" width="50" height="30" as="geometry" />
        </mxCell>
        <mxCell id="LSzqvkUK99cfRbp6Mw0R-63" value="&lt;div&gt;&lt;font color=&quot;#3399ff&quot;&gt;xxx&lt;/font&gt;&lt;/div&gt;" style="text;html=1;align=left;verticalAlign=middle;resizable=0;points=[];autosize=1;strokeColor=none;fillColor=default;fontFamily=Lucida Console;fontSize=14;" vertex="1" parent="LSzqvkUK99cfRbp6Mw0R-61">
          <mxGeometry x="20" y="185" width="50" height="30" as="geometry" />
        </mxCell>
        <mxCell id="LSzqvkUK99cfRbp6Mw0R-64" value="&lt;div&gt;&lt;font color=&quot;#3399ff&quot;&gt;[3] RBD&lt;/font&gt;&lt;/div&gt;" style="text;html=1;align=left;verticalAlign=middle;resizable=0;points=[];autosize=1;strokeColor=none;fillColor=default;fontFamily=Lucida Console;fontSize=14;" vertex="1" parent="LSzqvkUK99cfRbp6Mw0R-61">
          <mxGeometry x="70" width="80" height="30" as="geometry" />
        </mxCell>
        <mxCell id="qkAYrCaB-duEuZqhV6VB-1" value="&lt;font&gt;0123456789012345678901234567890123456789012345678901234567890123456789012345678901234567890123456789012345678901234567890123456789012&lt;/font&gt;" style="text;html=1;align=left;verticalAlign=middle;resizable=0;points=[];autosize=1;strokeColor=none;fillColor=default;fontFamily=Lucida Console;fontSize=14;" parent="1" vertex="1">
          <mxGeometry x="10" y="-20" width="1150" height="30" as="geometry" />
        </mxCell>
        <mxCell id="qkAYrCaB-duEuZqhV6VB-2" value="&lt;font&gt;0&amp;nbsp; &amp;nbsp; &amp;nbsp; &amp;nbsp; &amp;nbsp;10&amp;nbsp; &amp;nbsp; &amp;nbsp; &amp;nbsp; 20&amp;nbsp; &amp;nbsp; &amp;nbsp; &amp;nbsp; 30&amp;nbsp; &amp;nbsp; &amp;nbsp; &amp;nbsp; 40&amp;nbsp; &amp;nbsp; &amp;nbsp; &amp;nbsp; 50&amp;nbsp; &amp;nbsp; &amp;nbsp; &amp;nbsp; 60&amp;nbsp; &amp;nbsp; &amp;nbsp; &amp;nbsp; 70&amp;nbsp; &amp;nbsp; &amp;nbsp; &amp;nbsp; 80&amp;nbsp; &amp;nbsp; &amp;nbsp; &amp;nbsp; 90&amp;nbsp; &amp;nbsp; &amp;nbsp; &amp;nbsp; 100&amp;nbsp; &amp;nbsp; &amp;nbsp; &amp;nbsp;110&amp;nbsp; &amp;nbsp; &amp;nbsp; &amp;nbsp;120&amp;nbsp; &amp;nbsp; &amp;nbsp; &amp;nbsp; &amp;nbsp;132&amp;nbsp;&lt;/font&gt;" style="text;html=1;align=left;verticalAlign=middle;resizable=0;points=[];autosize=1;strokeColor=none;fillColor=default;fontFamily=Lucida Console;fontSize=14;" parent="1" vertex="1">
          <mxGeometry x="10" y="-39" width="1170" height="30" as="geometry" />
        </mxCell>
        <mxCell id="oLKlljd090616Nfrw5Nb-9" value="&lt;font color=&quot;#3399ff&quot;&gt;M-TEK&amp;nbsp; &amp;nbsp; &lt;/font&gt;&lt;font color=&quot;#ff33ff&quot;&gt;Radar Rotator Sub-System&amp;nbsp; &amp;nbsp;&amp;nbsp;&lt;/font&gt;&lt;span style=&quot;color: rgb(51, 153, 255);&quot;&gt;2024-12-01&amp;nbsp; &amp;nbsp; 00:00:00&lt;/span&gt;&lt;font color=&quot;#ff33ff&quot;&gt;&amp;nbsp; &amp;nbsp; &amp;nbsp; &amp;nbsp; &amp;nbsp; &amp;nbsp; &amp;nbsp;&lt;/font&gt;&lt;span style=&quot;color: rgb(51, 153, 255);&quot;&gt;[uart]&lt;/span&gt;" style="text;html=1;align=left;verticalAlign=middle;resizable=0;points=[];autosize=1;strokeColor=none;fillColor=default;labelBackgroundColor=none;fontFamily=Lucida Console;fontSize=14;" parent="1" vertex="1">
          <mxGeometry x="100" y="-111" width="680" height="30" as="geometry" />
        </mxCell>
        <mxCell id="oLKlljd090616Nfrw5Nb-10" value="&lt;font color=&quot;#3399ff&quot;&gt;Mode: Rate&amp;nbsp; &amp;nbsp; Status:&amp;nbsp;&lt;/font&gt;&lt;font color=&quot;#00ff80&quot;&gt;Running&amp;nbsp; &amp;nbsp;&lt;/font&gt;" style="text;html=1;align=left;verticalAlign=middle;resizable=0;points=[];autosize=1;strokeColor=none;fillColor=default;fontFamily=Lucida Console;fontSize=14;" parent="1" vertex="1">
          <mxGeometry x="130" y="-80" width="290" height="30" as="geometry" />
        </mxCell>
        <mxCell id="0JCC86L8l436ZXqpCiF8-2" value="&lt;div&gt;&lt;br&gt;&lt;/div&gt;&lt;div&gt;&lt;br&gt;&lt;/div&gt;&lt;div&gt;&lt;br&gt;&lt;/div&gt;&lt;div&gt;&lt;br&gt;&lt;/div&gt;&lt;div&gt;&lt;br&gt;&lt;/div&gt;&lt;div&gt;&lt;br&gt;&lt;/div&gt;&lt;div&gt;&lt;br&gt;&lt;/div&gt;&lt;div&gt;&lt;br&gt;&lt;/div&gt;&lt;div&gt;&lt;br&gt;&lt;/div&gt;&lt;br&gt;&lt;div&gt;10&lt;/div&gt;&lt;div&gt;&lt;br&gt;&lt;/div&gt;&lt;div&gt;&lt;br&gt;&lt;/div&gt;&lt;div&gt;&lt;br&gt;&lt;/div&gt;&lt;div&gt;&lt;br&gt;&lt;/div&gt;&lt;div&gt;&lt;br&gt;&lt;/div&gt;&lt;div&gt;&lt;br&gt;&lt;/div&gt;&lt;div&gt;&lt;br&gt;&lt;/div&gt;&lt;div&gt;&lt;br&gt;&lt;/div&gt;&lt;div&gt;&lt;br&gt;&lt;/div&gt;&lt;div&gt;20&lt;/div&gt;&lt;div&gt;&lt;br&gt;&lt;/div&gt;&lt;div&gt;&lt;br&gt;&lt;/div&gt;&lt;div&gt;&lt;br&gt;&lt;/div&gt;&lt;div&gt;&lt;br&gt;&lt;/div&gt;&lt;div&gt;&lt;br&gt;&lt;/div&gt;&lt;div&gt;&lt;br&gt;&lt;/div&gt;&lt;div&gt;&lt;br&gt;&lt;/div&gt;&lt;div&gt;&lt;br&gt;&lt;/div&gt;&lt;div&gt;&lt;br&gt;&lt;/div&gt;&lt;div&gt;30&lt;/div&gt;&lt;div&gt;&lt;br&gt;&lt;/div&gt;&lt;div&gt;&lt;br&gt;&lt;/div&gt;&lt;div&gt;&lt;br&gt;&lt;/div&gt;&lt;div&gt;&lt;br&gt;&lt;/div&gt;&lt;div&gt;&lt;br&gt;&lt;/div&gt;&lt;div&gt;&lt;br&gt;&lt;/div&gt;&lt;div&gt;&lt;br&gt;&lt;/div&gt;&lt;div&gt;&lt;br&gt;&lt;/div&gt;&lt;div&gt;&lt;br&gt;&lt;/div&gt;&lt;div&gt;40&lt;/div&gt;&lt;div&gt;&lt;br&gt;&lt;/div&gt;&lt;div&gt;&lt;br&gt;&lt;/div&gt;&lt;div&gt;43&lt;/div&gt;&lt;div&gt;&lt;br&gt;&lt;/div&gt;&lt;div&gt;&lt;br&gt;&lt;/div&gt;&lt;div&gt;&lt;br&gt;&lt;/div&gt;" style="text;whiteSpace=wrap;html=1;align=right;fontFamily=Lucida Console;fontSize=14;" parent="1" vertex="1">
          <mxGeometry x="-18" y="-19" width="24" height="240" as="geometry" />
        </mxCell>
        <mxCell id="qkAYrCaB-duEuZqhV6VB-3" value="0&lt;div&gt;1&lt;/div&gt;&lt;div&gt;2&lt;/div&gt;&lt;div&gt;3&lt;/div&gt;&lt;div&gt;4&lt;/div&gt;&lt;div&gt;5&lt;/div&gt;&lt;div&gt;6&lt;/div&gt;&lt;div&gt;7&lt;/div&gt;&lt;div&gt;8&lt;/div&gt;&lt;div&gt;9&lt;/div&gt;&lt;div&gt;0&lt;/div&gt;&lt;div&gt;1&lt;/div&gt;&lt;div&gt;2&lt;/div&gt;&lt;div&gt;3&lt;/div&gt;&lt;div&gt;4&lt;/div&gt;&lt;div&gt;5&lt;/div&gt;&lt;div&gt;6&lt;/div&gt;&lt;div&gt;7&lt;/div&gt;&lt;div&gt;8&lt;/div&gt;&lt;div&gt;9&lt;/div&gt;&lt;div&gt;0&lt;/div&gt;&lt;div&gt;1&lt;/div&gt;&lt;div&gt;2&lt;/div&gt;&lt;div&gt;3&lt;/div&gt;&lt;div&gt;4&lt;/div&gt;&lt;div&gt;5&lt;/div&gt;&lt;div&gt;6&lt;/div&gt;&lt;div&gt;7&lt;/div&gt;&lt;div&gt;8&lt;/div&gt;&lt;div&gt;9&lt;/div&gt;&lt;div&gt;0&lt;/div&gt;&lt;div&gt;1&lt;/div&gt;&lt;div&gt;2&lt;/div&gt;&lt;div&gt;3&lt;/div&gt;&lt;div&gt;4&lt;/div&gt;&lt;div&gt;5&lt;/div&gt;&lt;div&gt;6&lt;/div&gt;&lt;div&gt;7&lt;/div&gt;&lt;div&gt;8&lt;/div&gt;&lt;div&gt;9&lt;/div&gt;&lt;div&gt;0&lt;/div&gt;&lt;div&gt;1&lt;/div&gt;&lt;div&gt;2&lt;/div&gt;&lt;div&gt;3&lt;/div&gt;&lt;div&gt;&lt;br&gt;&lt;/div&gt;&lt;div&gt;&lt;br&gt;&lt;/div&gt;" style="text;whiteSpace=wrap;html=1;fontFamily=Lucida Console;fontSize=14;" parent="1" vertex="1">
          <mxGeometry x="10" y="-19" width="24" height="240" as="geometry" />
        </mxCell>
        <mxCell id="0JCC86L8l436ZXqpCiF8-4" value="&lt;div&gt;&lt;font color=&quot;#3399ff&quot;&gt;Speed setpoints&lt;/font&gt;&lt;/div&gt;&lt;div&gt;&lt;font color=&quot;#3399ff&quot;&gt;&lt;br&gt;&lt;/font&gt;&lt;/div&gt;&lt;div&gt;&lt;font color=&quot;#3399ff&quot;&gt;&amp;nbsp; &amp;nbsp; &amp;nbsp;&amp;nbsp;&lt;/font&gt;&lt;font color=&quot;#3399ff&quot; style=&quot;background-color: initial;&quot;&gt;n[rpm]&amp;nbsp; &amp;nbsp;&amp;nbsp;&lt;/font&gt;&lt;span style=&quot;background-color: initial; color: rgb(51, 153, 255);&quot;&gt;Tdur[s]&lt;/span&gt;&lt;/div&gt;&lt;div&gt;&lt;font color=&quot;#3399ff&quot;&gt;T-3 : 05&lt;/font&gt;&lt;span style=&quot;color: rgb(51, 153, 255); background-color: initial;&quot;&gt;&amp;nbsp; &amp;nbsp; &amp;nbsp; &amp;nbsp; 05&lt;/span&gt;&lt;/div&gt;&lt;div&gt;&lt;font color=&quot;#3399ff&quot;&gt;T-2 :&amp;nbsp;&lt;/font&gt;&lt;span style=&quot;color: rgb(51, 153, 255); background-color: initial;&quot;&gt;10&amp;nbsp; &amp;nbsp; &amp;nbsp; &amp;nbsp; 60&lt;/span&gt;&lt;/div&gt;&lt;div&gt;&lt;font color=&quot;#3399ff&quot;&gt;T-1 : 30&amp;nbsp; &amp;nbsp; &amp;nbsp; &amp;nbsp; 10&lt;/font&gt;&lt;/div&gt;&lt;div&gt;&lt;font color=&quot;#00cc00&quot;&gt;T&amp;nbsp; &amp;nbsp;: 05&amp;nbsp; &amp;nbsp; &amp;nbsp; &amp;nbsp; inf&lt;/font&gt;&lt;/div&gt;&lt;div&gt;&lt;font color=&quot;#3399ff&quot;&gt;T+1 : 30&amp;nbsp; &amp;nbsp; &amp;nbsp; &amp;nbsp; 10&lt;/font&gt;&lt;/div&gt;&lt;div&gt;&lt;font color=&quot;#3399ff&quot;&gt;T+2 : 15&amp;nbsp; &amp;nbsp; &amp;nbsp; &amp;nbsp; 05&lt;/font&gt;&lt;/div&gt;&lt;div&gt;&lt;font color=&quot;#3399ff&quot;&gt;T+3 : 03&amp;nbsp; &amp;nbsp; &amp;nbsp; &amp;nbsp; 03&lt;/font&gt;&lt;/div&gt;" style="text;html=1;align=left;verticalAlign=middle;resizable=0;points=[];autosize=1;strokeColor=none;fillColor=default;fontFamily=Lucida Console;fontSize=14;" parent="1" vertex="1">
          <mxGeometry x="1296" y="237.5" width="220" height="180" as="geometry" />
        </mxCell>
        <mxCell id="0JCC86L8l436ZXqpCiF8-5" value="&lt;font color=&quot;#3399ff&quot;&gt;New speed setpoint (n, Tdur) ====&amp;gt;&amp;nbsp;&lt;/font&gt;&lt;div&gt;&lt;font color=&quot;#3399ff&quot;&gt;(&quot;I/i&quot; for infinity. &amp;lt;Enter&amp;gt; to submit&lt;/font&gt;&lt;/div&gt;" style="text;html=1;align=left;verticalAlign=middle;resizable=0;points=[];autosize=1;strokeColor=none;fillColor=default;labelBackgroundColor=none;fontFamily=Lucida Console;fontSize=14;" parent="1" vertex="1">
          <mxGeometry x="1250" y="430" width="340" height="50" as="geometry" />
        </mxCell>
        <mxCell id="0JCC86L8l436ZXqpCiF8-6" value="&lt;div&gt;&lt;font color=&quot;#3399ff&quot;&gt;Position setpoints&lt;/font&gt;&lt;/div&gt;&lt;div&gt;&lt;font color=&quot;#3399ff&quot;&gt;&lt;br&gt;&lt;/font&gt;&lt;/div&gt;&lt;div&gt;&lt;font color=&quot;#3399ff&quot;&gt;&amp;nbsp; &amp;nbsp; &amp;nbsp;&amp;nbsp;&lt;/font&gt;&lt;font color=&quot;#3399ff&quot; style=&quot;background-color: initial;&quot;&gt;theta[deg]&amp;nbsp;&lt;/font&gt;&lt;/div&gt;&lt;div&gt;&lt;font color=&quot;#3399ff&quot;&gt;T-3 : 45&lt;/font&gt;&lt;/div&gt;&lt;div&gt;&lt;font color=&quot;#3399ff&quot;&gt;T-2 : 90&lt;/font&gt;&lt;span style=&quot;color: rgb(51, 153, 255); background-color: initial;&quot;&gt;&amp;nbsp; &amp;nbsp; &amp;nbsp; &amp;nbsp;&amp;nbsp;&lt;/span&gt;&lt;/div&gt;&lt;div&gt;&lt;font color=&quot;#3399ff&quot;&gt;T-1 : 180&amp;nbsp; &amp;nbsp; &amp;nbsp; &amp;nbsp;&amp;nbsp;&lt;/font&gt;&lt;/div&gt;&lt;div&gt;&lt;font color=&quot;#00cc00&quot;&gt;T&amp;nbsp; &amp;nbsp;: 35&amp;nbsp; &amp;nbsp; &amp;nbsp; &amp;nbsp;&amp;nbsp;&lt;/font&gt;&lt;/div&gt;&lt;div&gt;&lt;font color=&quot;#3399ff&quot;&gt;T+1 : 15&amp;nbsp; &amp;nbsp; &amp;nbsp; &amp;nbsp;&amp;nbsp;&lt;/font&gt;&lt;/div&gt;&lt;div&gt;&lt;font color=&quot;#3399ff&quot;&gt;T+2 : 0&amp;nbsp; &amp;nbsp; &amp;nbsp; &amp;nbsp;&amp;nbsp;&lt;/font&gt;&lt;/div&gt;&lt;div&gt;&lt;font color=&quot;#3399ff&quot;&gt;T+3 : 100&amp;nbsp; &amp;nbsp; &amp;nbsp; &amp;nbsp;&amp;nbsp;&lt;/font&gt;&lt;/div&gt;" style="text;html=1;align=left;verticalAlign=middle;resizable=0;points=[];autosize=1;strokeColor=none;fillColor=default;fontFamily=Lucida Console;fontSize=14;" parent="1" vertex="1">
          <mxGeometry x="1530" y="230" width="180" height="180" as="geometry" />
        </mxCell>
        <mxCell id="0JCC86L8l436ZXqpCiF8-7" value="&lt;div&gt;&lt;font color=&quot;#3399ff&quot;&gt;Torque setpoints&lt;/font&gt;&lt;/div&gt;&lt;div&gt;&lt;font color=&quot;#3399ff&quot;&gt;&lt;br&gt;&lt;/font&gt;&lt;/div&gt;&lt;div&gt;&lt;font color=&quot;#3399ff&quot;&gt;&amp;nbsp; &amp;nbsp; &amp;nbsp;&amp;nbsp;&lt;/font&gt;&lt;font color=&quot;#3399ff&quot; style=&quot;background-color: initial;&quot;&gt;T[Nm]&amp;nbsp; &amp;nbsp;&amp;nbsp;&lt;/font&gt;&lt;span style=&quot;background-color: initial; color: rgb(51, 153, 255);&quot;&gt;Tdur[s]&lt;/span&gt;&lt;/div&gt;&lt;div&gt;&lt;font color=&quot;#3399ff&quot;&gt;T-3 : 05&lt;/font&gt;&lt;span style=&quot;color: rgb(51, 153, 255); background-color: initial;&quot;&gt;&amp;nbsp; &amp;nbsp; &amp;nbsp; &amp;nbsp; 05&lt;/span&gt;&lt;/div&gt;&lt;div&gt;&lt;font color=&quot;#3399ff&quot;&gt;T-2 :&amp;nbsp;&lt;/font&gt;&lt;span style=&quot;color: rgb(51, 153, 255); background-color: initial;&quot;&gt;10&amp;nbsp; &amp;nbsp; &amp;nbsp; &amp;nbsp; 60&lt;/span&gt;&lt;/div&gt;&lt;div&gt;&lt;font color=&quot;#3399ff&quot;&gt;T-1 : 15&amp;nbsp; &amp;nbsp; &amp;nbsp; &amp;nbsp; 10&lt;/font&gt;&lt;/div&gt;&lt;div&gt;&lt;font color=&quot;#00cc00&quot;&gt;T&amp;nbsp; &amp;nbsp;: 05&amp;nbsp; &amp;nbsp; &amp;nbsp; &amp;nbsp; inf&lt;/font&gt;&lt;/div&gt;&lt;div&gt;&lt;font color=&quot;#3399ff&quot;&gt;T+1 : 10&amp;nbsp; &amp;nbsp; &amp;nbsp; &amp;nbsp; 10&lt;/font&gt;&lt;/div&gt;&lt;div&gt;&lt;font color=&quot;#3399ff&quot;&gt;T+2 : 15&amp;nbsp; &amp;nbsp; &amp;nbsp; &amp;nbsp; 05&lt;/font&gt;&lt;/div&gt;&lt;div&gt;&lt;font color=&quot;#3399ff&quot;&gt;T+3 : 03&amp;nbsp; &amp;nbsp; &amp;nbsp; &amp;nbsp; 03&lt;/font&gt;&lt;/div&gt;" style="text;html=1;align=left;verticalAlign=middle;resizable=0;points=[];autosize=1;strokeColor=none;fillColor=default;fontFamily=Lucida Console;fontSize=14;" parent="1" vertex="1">
          <mxGeometry x="1703" y="230" width="210" height="180" as="geometry" />
        </mxCell>
        <mxCell id="oLKlljd090616Nfrw5Nb-16" value="&lt;font color=&quot;#3399ff&quot;&gt;Mode&amp;nbsp;&lt;br&gt;&lt;/font&gt;&lt;div&gt;&lt;font color=&quot;#3399ff&quot;&gt;position&lt;/font&gt;&lt;div&gt;&lt;font color=&quot;#3399ff&quot;&gt;speed&lt;/font&gt;&lt;/div&gt;&lt;div&gt;&lt;font color=&quot;#3399ff&quot;&gt;torque&lt;/font&gt;&lt;/div&gt;&lt;div&gt;&lt;font color=&quot;#3399ff&quot;&gt;idle&lt;/font&gt;&lt;/div&gt;&lt;div&gt;&lt;span style=&quot;background-color: initial;&quot;&gt;&lt;font color=&quot;#3399ff&quot;&gt;⌂&lt;/font&gt;&lt;/span&gt;&lt;font color=&quot;#3399ff&quot;&gt;&amp;nbsp;homing&lt;/font&gt;&lt;/div&gt;&lt;/div&gt;" style="text;html=1;align=left;verticalAlign=middle;resizable=0;points=[];autosize=1;strokeColor=none;fillColor=default;fontFamily=Lucida Console;fontSize=14;" parent="1" vertex="1">
          <mxGeometry x="1240" y="20" width="90" height="110" as="geometry" />
        </mxCell>
        <mxCell id="LSzqvkUK99cfRbp6Mw0R-16" value="&lt;div&gt;&lt;font color=&quot;#3399ff&quot;&gt;Brake&lt;/font&gt;&lt;/div&gt;&lt;div&gt;&lt;font color=&quot;#3399ff&quot;&gt;Engage&lt;/font&gt;&lt;/div&gt;&lt;div&gt;&lt;font color=&quot;#3399ff&quot;&gt;Release&lt;/font&gt;&lt;/div&gt;" style="text;html=1;align=left;verticalAlign=middle;resizable=0;points=[];autosize=1;strokeColor=none;fillColor=default;fontFamily=Lucida Console;fontSize=14;" vertex="1" parent="1">
          <mxGeometry x="1370" y="-10" width="80" height="60" as="geometry" />
        </mxCell>
        <mxCell id="LSzqvkUK99cfRbp6Mw0R-1" value="&lt;div&gt;&lt;font color=&quot;#3399ff&quot;&gt;Drive&lt;/font&gt;&lt;/div&gt;" style="text;html=1;align=left;verticalAlign=middle;resizable=0;points=[];autosize=1;strokeColor=none;fillColor=default;fontFamily=Lucida Console;fontSize=14;" vertex="1" parent="1">
          <mxGeometry x="1310" y="-49" width="70" height="30" as="geometry" />
        </mxCell>
      </root>
    </mxGraphModel>
  </diagram>
</mxfile>
